<svg id="Layer_1" enable-background="new 0 0 512 512" height="512" viewBox="0 0 512 512" width="512" xmlns="http://www.w3.org/2000/svg"><g><path d="m464 32h-40v-8c0-13.233-10.767-24-24-24s-24 10.767-24 24v8h-240v-8c0-13.233-10.767-24-24-24s-24 10.767-24 24v8h-40c-17.645 0-32 14.355-32 32v336c0 17.645 14.355 32 32 32h72c4.418 0 8-3.582 8-8s-3.582-8-8-8h-72c-8.822 0-16-7.178-16-16v-272h448v272c0 8.822-7.178 16-16 16h-72c-4.418 0-8 3.582-8 8s3.582 8 8 8h72c17.645 0 32-14.355 32-32 0-14.641 0-319.924 0-336 0-17.645-14.355-32-32-32zm-72-8c0-4.411 3.589-8 8-8s8 3.589 8 8v40c0 4.411-3.589 8-8 8s-8-3.589-8-8zm-288 0c0-4.411 3.589-8 8-8s8 3.589 8 8v40c0 4.411-3.589 8-8 8s-8-3.589-8-8zm-72 88v-48c0-8.822 7.178-16 16-16h40v16c0 13.233 10.767 24 24 24s24-10.767 24-24v-16h240v16c0 13.233 10.767 24 24 24s24-10.767 24-24v-16h40c8.822 0 16 7.178 16 16v48z"/><path d="m352 404.687v-52.687c0-42.685-28.005-78.945-66.604-91.391 9.112-21.229-6.611-44.609-29.396-44.609-22.821 0-38.491 23.42-29.396 44.609-38.599 12.446-66.604 48.706-66.604 91.391v52.687c0 5.159-2.009 10.009-5.657 13.656-6.67 6.67-10.343 15.538-10.343 24.971v12.686c0 4.418 3.582 8 8 8h64.813c-5.079 24.919 14.072 48 39.187 48 25.128 0 44.263-23.097 39.187-48h64.813c4.418 0 8-3.582 8-8v-12.687c0-9.433-3.673-18.301-10.343-24.971-3.648-3.647-5.657-8.496-5.657-13.655zm-96-172.687c12.881 0 20.363 14.469 13.274 24.922-8.841-1.228-17.696-1.23-26.547 0-7.088-10.45.389-24.922 13.273-24.922zm0 264c-16.439 0-28.16-16.302-22.623-32h45.247c5.532 15.688-6.175 32-22.624 32zm96-48h-192c0-5.979-.512-12.175 5.657-18.343 6.67-6.67 10.343-15.538 10.343-24.971v-52.686c0-44.112 35.888-80 80-80s80 35.888 80 80v52.687c0 9.433 3.673 18.301 10.343 24.971 6.194 6.192 5.657 12.627 5.657 18.342z"/></g></svg>